<?xml version="1.0" standalone="no"?>
<!DOCTYPE svg PUBLIC "-//W3C//DTD SVG 20010904//EN"
 "http://www.w3.org/TR/2001/REC-SVG-20010904/DTD/svg10.dtd">
<svg version="1.0" xmlns="http://www.w3.org/2000/svg"
 width="512.000000pt" height="512.000000pt" viewBox="0 0 512.000000 512.000000"
 preserveAspectRatio="xMidYMid meet">

<g transform="translate(0.000000,512.000000) scale(0.100000,-0.100000)"
fill="#000000" stroke="none">
<path d="M2365 4894 c-47 -26 -76 -56 -96 -100 -17 -36 -23 -42 -71 -53 -29
-6 -91 -28 -138 -48 -310 -131 -557 -374 -676 -667 -68 -167 -104 -360 -104
-559 l0 -94 -41 -18 c-48 -22 -104 -84 -120 -133 -15 -44 -7 -158 14 -197 8
-17 32 -47 52 -67 73 -72 -11 -68 1367 -68 879 0 1252 3 1283 11 56 14 131 79
156 134 22 48 25 151 5 199 -20 48 -70 100 -116 121 l-40 18 0 87 c0 199 -35
394 -100 556 -136 342 -446 617 -820 728 -48 15 -57 22 -75 58 -11 23 -37 56
-58 72 l-39 31 -176 2 c-147 2 -182 0 -207 -13z m285 -196 c0 -35 -11 -335
-25 -668 -14 -333 -25 -613 -25 -622 0 -16 -10 -18 -75 -18 l-75 0 0 42 c0 23
-11 325 -25 671 -20 478 -23 632 -14 643 9 10 40 14 125 14 l114 0 0 -62z
m-372 -665 c13 -318 22 -593 22 -610 l0 -33 -435 0 -435 0 0 129 c0 304 99
562 294 768 l61 65 94 -242 c58 -149 101 -245 112 -251 49 -26 112 4 112 54 0
13 -45 138 -99 277 l-98 252 24 20 c46 38 279 145 321 148 3 0 15 -260 27
-577z m658 553 c79 -27 217 -94 254 -124 l24 -20 -98 -252 c-54 -139 -98 -263
-98 -276 0 -51 61 -81 111 -54 11 5 53 100 112 251 l93 241 62 -65 c121 -127
215 -298 260 -472 21 -81 27 -131 31 -262 l6 -163 -437 0 -436 0 0 33 c-1 38
43 1187 45 1187 1 0 33 -11 71 -24z m901 -1381 c32 -32 35 -40 30 -77 -8 -62
-34 -81 -119 -89 -118 -12 -2377 -11 -2420 1 -88 25 -106 135 -30 183 25 15
130 16 1266 17 l1238 0 35 -35z"/>
<path d="M4554 3520 c-97 -20 -185 -85 -223 -163 -11 -23 -45 -170 -76 -327
-31 -157 -58 -293 -61 -302 -3 -10 -15 -18 -28 -18 -37 0 -128 -52 -158 -91
-21 -26 -50 -106 -111 -301 l-82 -265 -135 -115 c-137 -117 -187 -173 -234
-263 -25 -45 -74 -192 -171 -508 -20 -65 -41 -115 -46 -111 -20 12 -70 -8 -83
-34 -25 -50 -147 -464 -144 -489 2 -14 14 -34 28 -43 37 -26 1099 -285 1133
-276 35 8 42 23 122 284 79 257 79 267 5 292 -25 9 -52 18 -60 21 -10 4 47 84
197 275 115 148 231 300 256 338 73 108 135 236 177 364 69 211 71 244 70 871
0 307 -5 583 -10 613 -17 106 -71 177 -170 222 -64 28 -137 38 -196 26z m146
-162 c85 -43 80 -7 83 -689 2 -554 0 -611 -16 -684 -40 -173 -112 -346 -199
-475 -46 -67 -494 -646 -506 -654 -4 -2 -158 33 -342 79 -297 74 -335 85 -332
102 11 60 159 518 183 566 39 76 78 118 236 254 l132 114 45 142 c25 78 64
205 88 281 37 122 46 141 73 158 41 26 102 18 132 -17 13 -14 23 -34 23 -43 0
-9 -27 -105 -60 -212 -33 -107 -60 -201 -60 -209 0 -49 89 -80 123 -43 14 15
121 344 141 435 12 51 -20 134 -69 181 l-43 42 62 307 c57 285 63 308 91 337
51 53 141 65 215 28z m-972 -2577 c244 -59 445 -111 448 -114 6 -5 -74 -277
-85 -289 -4 -4 -189 38 -411 93 -223 55 -429 105 -457 112 -29 6 -53 16 -53
22 -1 5 19 74 42 152 33 110 46 142 58 138 8 -3 214 -54 458 -114z"/>
<path d="M410 3511 c-119 -39 -191 -121 -210 -238 -5 -31 -10 -306 -11 -612
-1 -628 2 -663 72 -874 42 -129 104 -255 176 -363 25 -38 141 -190 256 -338
150 -191 207 -271 197 -275 -8 -3 -35 -12 -60 -21 -74 -25 -74 -35 5 -292 80
-260 87 -275 122 -284 36 -9 1107 253 1140 279 13 11 23 29 23 44 0 28 -125
443 -146 485 -13 26 -63 46 -83 34 -5 -4 -26 46 -46 111 -97 316 -146 463
-171 508 -47 89 -97 145 -234 263 l-135 115 -82 265 c-60 197 -89 274 -110
301 -31 39 -122 91 -159 91 -13 0 -25 8 -28 18 -3 9 -30 145 -61 302 -31 157
-65 303 -75 326 -23 54 -82 112 -139 137 -50 22 -195 33 -241 18z m159 -141
c40 -11 79 -45 93 -80 5 -14 36 -155 68 -315 l58 -290 -43 -42 c-49 -47 -81
-129 -69 -180 20 -91 127 -420 141 -435 33 -36 123 -6 123 41 0 9 -27 104 -60
211 -33 107 -60 203 -60 212 0 9 10 29 23 43 30 35 91 43 132 17 27 -17 36
-36 73 -158 24 -76 63 -203 88 -281 l44 -142 128 -109 c157 -135 203 -184 240
-259 25 -49 173 -507 184 -567 3 -17 -32 -27 -332 -101 -184 -46 -338 -81
-342 -79 -23 15 -498 639 -542 713 -63 107 -116 235 -145 347 -42 168 -44 220
-37 803 7 626 3 597 86 639 48 24 95 28 149 12z m1340 -2616 c23 -72 41 -138
41 -145 0 -10 -128 -46 -457 -127 -251 -61 -460 -109 -464 -105 -11 13 -92
283 -86 289 10 10 912 231 919 225 3 -3 25 -65 47 -137z"/>
</g>
</svg>
