<?xml version="1.0" standalone="no"?>
<!DOCTYPE svg PUBLIC "-//W3C//DTD SVG 20010904//EN"
 "http://www.w3.org/TR/2001/REC-SVG-20010904/DTD/svg10.dtd">
<svg version="1.0" xmlns="http://www.w3.org/2000/svg"
 width="474.000000pt" height="154.000000pt" viewBox="0 0 474.000000 154.000000"
 preserveAspectRatio="xMidYMid meet" >

<g transform="translate(0.000000,154.000000) scale(0.100000,-0.100000)"
fill="orangered" stroke="none">
<path d="M724 1530 c-154 -23 -282 -109 -337 -228 -18 -39 -22 -65 -22 -152 0
-91 3 -112 24 -155 33 -66 96 -127 171 -165 67 -34 67 -34 33 -107 -37 -80
-157 -143 -246 -129 -127 21 -237 122 -237 220 0 25 -4 36 -15 36 -13 0 -15
27 -15 185 0 196 5 224 47 246 20 11 28 10 54 -5 28 -16 32 -16 54 -2 33 22
33 60 0 82 -23 15 -27 15 -50 0 -13 -9 -32 -16 -42 -16 -32 0 -84 -40 -99 -75
-10 -26 -14 -82 -14 -225 0 -169 -2 -190 -16 -190 -14 0 -16 -8 -10 -49 18
-138 102 -244 228 -289 l48 -17 0 -49 c0 -27 8 -67 19 -90 11 -23 31 -67 46
-98 73 -158 232 -248 440 -248 216 0 383 89 455 241 68 145 40 310 -71 414
-66 61 -132 92 -288 131 -75 19 -146 40 -158 46 -21 10 -22 16 -25 209 -3 223
-7 236 -84 273 -21 11 -47 23 -56 28 -10 4 -25 8 -34 8 -30 0 13 37 84 72 57
28 76 32 172 36 144 6 224 -17 300 -84 52 -47 110 -134 110 -166 0 -26 -21
-33 -36 -13 -13 18 -14 18 -34 0 -15 -14 -17 -22 -9 -37 13 -24 -1 -42 -33
-43 -29 0 -44 -42 -17 -50 26 -8 25 -45 -2 -52 -30 -8 -23 -59 8 -55 29 4 38
-15 22 -44 -11 -21 -10 -27 3 -40 12 -12 20 -13 35 -6 26 14 47 -1 40 -27 -3
-14 1 -24 13 -31 27 -15 37 -12 43 10 7 27 47 27 47 1 0 -25 11 -32 38 -24 15
4 22 13 22 29 0 31 25 41 49 20 16 -15 19 -15 36 4 14 16 15 22 5 35 -19 23
-5 46 26 43 20 -2 28 3 35 20 7 20 5 25 -11 29 -28 8 -28 53 1 53 16 0 20 5
17 28 -2 21 -8 27 -28 27 -28 0 -39 27 -19 51 10 12 9 18 -5 32 -13 13 -20 14
-35 5 -23 -14 -37 -2 -43 37 -4 32 -43 41 -52 12 -11 -35 -40 -14 -76 56 -69
134 -189 221 -335 242 -78 11 -97 11 -171 0z m-207 -270 c9 0 24 7 33 15 13
12 24 13 42 6 50 -19 53 -30 53 -233 0 -103 -2 -188 -4 -188 -2 0 -30 14 -63
32 -114 61 -164 152 -156 282 3 39 13 86 22 104 l17 33 20 -25 c11 -14 28 -26
36 -26z m811 -136 c12 -8 30 -30 39 -49 35 -73 -23 -155 -109 -155 -85 0 -139
108 -87 174 42 54 102 65 157 30z m-462 -388 c148 -39 196 -60 256 -114 83
-75 112 -208 71 -328 -20 -59 -97 -140 -164 -172 -141 -68 -371 -65 -489 6
-47 29 -102 87 -126 134 -29 58 -30 65 -2 88 17 14 23 31 26 83 4 60 6 66 29
72 113 28 208 124 247 248 3 9 9 17 13 17 4 0 67 -16 139 -34z"/>
<path d="M1545 898 c-3 -7 -72 -199 -155 -427 -82 -227 -150 -417 -150 -422 0
-5 17 -9 39 -9 l38 0 45 128 45 127 185 3 186 2 38 -107 c20 -60 41 -118 45
-130 8 -21 15 -23 74 -23 l65 0 0 366 c0 292 3 364 13 356 6 -6 125 -171 262
-366 l250 -356 38 0 37 0 0 435 0 435 -40 0 -40 0 -2 -362 -3 -362 -255 362
-255 361 -42 1 -43 0 -2 -381 -3 -381 -94 259 c-51 142 -114 313 -138 381
l-45 122 -44 0 c-27 0 -46 -5 -49 -12z m129 -308 l73 -205 -150 -3 c-82 -1
-151 -1 -153 1 -2 2 25 87 61 188 79 223 88 245 92 233 2 -5 37 -101 77 -214z"/>
<path d="M2652 478 l3 -433 38 -3 37 -3 0 353 c1 249 4 348 11 335 6 -10 73
-167 149 -350 l139 -332 38 -3 38 -2 145 349 145 349 5 -346 5 -347 38 -3 37
-3 0 435 0 436 -47 0 -48 0 -155 -375 c-85 -206 -158 -375 -161 -375 -7 0 -20
30 -203 470 l-115 275 -50 3 -51 3 2 -433z"/>
<path d="M3530 475 l0 -435 260 0 260 0 0 35 0 35 -220 0 -220 0 0 165 0 165
200 0 200 0 0 35 0 35 -200 0 -200 0 0 165 0 165 215 0 215 0 0 35 0 35 -255
0 -255 0 0 -435z"/>
<path d="M4062 478 l3 -433 185 1 c167 0 190 3 242 23 113 44 199 150 228 282
16 74 8 247 -15 315 -35 105 -131 197 -238 229 -37 11 -99 15 -229 15 l-178 0
2 -432z m385 347 c68 -20 143 -88 172 -156 67 -155 29 -405 -74 -484 -76 -57
-118 -68 -265 -69 l-135 -1 -3 363 -2 362 128 0 c85 0 145 -5 179 -15z"/>
</g>
</svg>
