<?xml version="1.0" standalone="no"?>
<!DOCTYPE svg PUBLIC "-//W3C//DTD SVG 20010904//EN"
 "http://www.w3.org/TR/2001/REC-SVG-20010904/DTD/svg10.dtd">
<svg version="1.0" xmlns="http://www.w3.org/2000/svg"
 width="500.000000pt" height="500.000000pt" viewBox="0 0 500.000000 500.000000"
 preserveAspectRatio="xMidYMid meet">

<g transform="translate(0.000000,500.000000) scale(0.100000,-0.100000)"
fill="#000000" stroke="none">
<path d="M3215 4047 c-26 -19 -46 -23 -155 -27 -142 -6 -179 -20 -215 -80 -26
-46 -25 -99 8 -410 14 -135 31 -301 37 -370 32 -363 83 -505 237 -657 58 -57
93 -82 166 -117 50 -24 119 -50 152 -57 33 -7 66 -17 73 -22 15 -12 17 -387 2
-522 -31 -278 -163 -477 -401 -604 -280 -149 -651 -125 -896 60 -186 139 -231
369 -120 604 32 65 60 104 217 295 34 41 76 104 93 140 27 56 31 76 31 140 0
64 -6 88 -39 164 -37 86 -37 89 -25 141 32 134 -28 241 -155 276 -119 33 -264
-78 -265 -202 0 -75 41 -150 105 -189 22 -13 60 -24 102 -28 l67 -7 18 -45 c9
-25 17 -72 17 -106 1 -81 -25 -131 -143 -271 -112 -132 -165 -220 -200 -325
-87 -260 -41 -477 138 -653 182 -180 457 -269 743 -243 363 33 637 214 783
519 22 46 49 120 60 164 27 105 42 333 35 520 -5 118 -4 153 7 166 7 9 42 24
78 33 266 71 456 291 505 584 26 157 99 935 91 974 -8 46 -49 96 -93 114 -20
9 -72 14 -140 14 -97 0 -112 3 -148 25 -52 32 -121 34 -159 4 -56 -44 -72
-118 -36 -176 39 -65 117 -81 191 -38 38 21 57 25 132 25 67 0 89 -3 93 -14 7
-18 -54 -637 -68 -691 -18 -70 -54 -129 -116 -188 -179 -170 -494 -207 -733
-86 -39 19 -90 58 -130 98 -105 105 -104 104 -159 653 -11 114 -20 212 -20
218 0 6 38 10 98 10 85 -1 102 -4 137 -25 26 -17 55 -25 84 -25 37 0 49 6 82
39 34 34 39 44 39 86 0 84 -50 135 -132 135 -28 -1 -53 -8 -73 -23z m-994
-1196 c35 -36 37 -70 6 -107 -31 -35 -77 -37 -112 -4 -41 38 -31 99 20 128 32
18 55 14 86 -17z m954 -22 c133 -87 246 -119 424 -119 174 0 329 46 439 130
29 22 55 40 58 40 10 0 -8 -64 -33 -115 -84 -176 -239 -282 -428 -292 -111 -7
-183 8 -274 53 -117 58 -237 207 -265 327 -8 34 -10 35 79 -24z"/>
<path d="M1830 3596 c0 -305 2 -298 -84 -295 -28 1 -57 6 -63 12 -10 7 -13 57
-13 188 0 148 -2 179 -14 179 -22 0 -166 -63 -241 -104 -336 -188 -581 -549
-639 -939 -14 -96 -22 -107 -74 -107 -67 0 -96 -77 -47 -125 l24 -25 715 0
c715 0 715 0 721 21 8 25 11 22 -45 38 -94 27 -178 99 -231 201 -21 39 -24 59
-24 150 0 95 3 111 28 162 60 123 172 198 306 206 135 8 245 -41 323 -144 56
-73 73 -130 74 -259 1 -89 5 -122 24 -170 12 -33 25 -93 28 -132 l5 -73 210 0
209 0 -44 53 c-136 158 -212 356 -233 607 -11 137 -45 475 -51 508 -4 26 -14
36 -54 57 -65 33 -197 85 -215 85 -13 0 -15 -29 -15 -184 0 -209 0 -208 -77
-205 -88 4 -82 -15 -85 287 l-3 267 -207 3 -208 2 0 -264z"/>
</g>
</svg>
